<?xml version="1.0" encoding="UTF-8"?>
<svg xmlns="http://www.w3.org/2000/svg" width="124" height="48" viewBox="0 0 124 48" fill="none">
  <g clip-path="url(#clip0_339_2142)">
    <path d="M96.7213 26.3324C96.1133 26.9508 95.2654 27.3358 94.3274 27.3358C92.4767 27.3358 90.9771 25.8421 90.9771 23.9988C90.9771 22.1555 92.4767 20.6618 94.3274 20.6618C95.2654 20.6618 96.1133 21.0459 96.7213 21.6651L98.6166 19.7774C97.5236 18.675 96.0057 17.9922 94.3274 17.9922C90.9962 17.9922 88.2969 20.6818 88.2969 23.9988C88.2969 27.3158 90.9971 30.0054 94.3274 30.0054C96.0057 30.0054 97.5236 29.3216 98.6166 28.2202L96.7213 26.3324Z" fill="#545352"></path>
    <path d="M0.365307 23.1211L23.2101 0.366891C23.9968 -0.416734 25.3406 0.138069 25.3406 1.24586V46.7542C25.3406 47.862 23.9959 48.4168 23.2101 47.6332L0.365307 24.879C-0.12242 24.3932 -0.12242 23.606 0.365307 23.1211Z" fill="#F18815"></path>
    <path d="M42.6546 23.0391L31.1661 11.5961C30.3065 10.7399 28.8369 11.3464 28.8369 12.5568V35.4418C28.8369 36.6522 30.3065 37.2587 31.1661 36.4025L42.6546 24.9595C43.1879 24.4283 43.1879 23.5684 42.6546 23.0372V23.0391Z" fill="#742E7B"></path>
    <path d="M103.352 14.4922H100.482V29.6807H103.352V21.1843H105.587V18.325H103.352V14.4922Z" fill="#545352"></path>
    <path d="M57.7331 19.002C56.7704 18.3564 55.6126 17.9796 54.3673 17.9796C51.0344 17.9796 48.3223 20.6809 48.3223 24.0007C48.3223 27.3204 51.0344 30.0218 54.3673 30.0218C55.6126 30.0218 56.7704 29.644 57.7331 28.9993V29.684H60.6039V14.5H57.7331V19.0011V19.002ZM54.3673 27.3531C52.5122 27.3531 51.0025 25.8494 51.0025 24.0016C51.0025 22.1537 52.5122 20.6501 54.3673 20.6501C56.2225 20.6501 57.7322 22.1537 57.7322 24.0016C57.7322 25.8494 56.2225 27.3531 54.3673 27.3531Z" fill="#545352"></path>
    <path d="M70.808 18.3331H67.9373V29.6861H70.808V24.07C70.808 24.07 70.8253 23.2854 71.1134 22.6416C71.6777 21.2878 73.0196 20.456 74.5813 20.456V17.9844C73.1509 17.9844 71.8509 18.4965 70.808 19.3201V18.334V18.3331Z" fill="#545352"></path>
    <path d="M65.7318 18.3281H62.8611V29.6821H65.7318V18.3281Z" fill="#545352"></path>
    <path d="M65.7219 14.5078H62.8584V17.3599H65.7219V14.5078Z" fill="#545352"></path>
    <path d="M109.984 18.3281H107.113V29.6821H109.984V18.3281Z" fill="#545352"></path>
    <path d="M109.974 14.5078H107.11V17.3599H109.974V14.5078Z" fill="#545352"></path>
    <path d="M81.1933 18C77.8603 18 75.1482 20.7014 75.1482 24.0211C75.1482 27.3408 77.8603 30.0422 81.1933 30.0422C82.8342 30.0422 84.3238 29.3866 85.4142 28.3252L83.5198 26.4383C82.9154 27.0158 82.0958 27.3726 81.1942 27.3726C79.741 27.3726 78.5048 26.4492 78.0344 25.1625H84.3585C84.3585 25.1625 84.3585 25.1652 84.3576 25.167H87.1289C87.201 24.7957 87.2402 24.4134 87.2402 24.0211C87.2402 20.7005 84.528 18 81.1951 18H81.1933ZM81.1933 20.6687C82.8442 20.6687 84.219 21.8609 84.5025 23.4254H77.8849C78.1685 21.8609 79.5423 20.6687 81.1942 20.6687H81.1933Z" fill="#545352"></path>
    <path d="M120.92 23.9988C120.92 25.8421 119.42 27.3358 117.57 27.3358C115.719 27.3358 114.219 25.8421 114.219 23.9988C114.219 22.1555 115.719 20.6618 117.57 20.6618C119.42 20.6618 120.92 22.1555 120.92 23.9988ZM117.57 17.9922C114.238 17.9922 111.539 20.6818 111.539 23.9988C111.539 27.3158 114.239 30.0054 117.57 30.0054C120.9 30.0054 123.6 27.3158 123.6 23.9988C123.6 20.6818 120.9 17.9922 117.57 17.9922Z" fill="#545352"></path>
  </g>
  <defs>
    <clipPath id="clip0_339_2142">
      <rect width="123.6" height="48" fill="white"></rect>
    </clipPath>
  </defs>
</svg>
